<?xml version="1.0" encoding="UTF-8"?>
<svg version="1.1" xmlns="http://www.w3.org/2000/svg" width="1800" height="1800">
<path d="M0 0 C3.90487729 0.01139338 7.80948169 0.00459319 11.71434975 -0.0068779 C39.66295227 -0.07637917 67.50090536 1.12755089 95.31152344 4.01074219 C96.12150787 4.09311127 96.93149231 4.17548035 97.76602173 4.26034546 C154.58418006 10.08992955 211.13694658 21.30804542 265.68652344 38.26074219 C266.38763245 38.47732483 267.08874146 38.69390747 267.81109619 38.91705322 C302.57616377 49.66152948 336.52827229 62.26376435 369.68652344 77.26074219 C370.29544434 77.53533264 370.90436523 77.8099231 371.53173828 78.09283447 C425.81759698 102.58745567 477.46230953 132.28881049 525.68652344 167.26074219 C526.45399902 167.81713379 527.22147461 168.37352539 528.01220703 168.94677734 C538.40855645 176.50491712 548.66530947 184.21159662 558.68652344 192.26074219 C559.32154785 192.76959961 559.95657227 193.27845703 560.61083984 193.80273438 C569.54338368 200.97230481 578.32160476 208.29901647 586.98193359 215.79443359 C588.66978777 217.24634597 590.36921301 218.68333313 592.07324219 220.11621094 C604.52411025 230.61361758 616.35022747 241.7805112 627.78149414 253.37695312 C630.26278253 255.88302396 632.7796214 258.26558465 635.49902344 260.51074219 C637.8066873 262.4237462 639.74976587 264.41023388 641.68652344 266.69824219 C645.29415349 270.95360582 649.2240027 274.84052423 653.18652344 278.76074219 C657.62320545 283.15878369 661.99274849 287.54295369 666.02636719 292.31933594 C668.14354806 294.79519215 670.35434173 297.17735487 672.56152344 299.57324219 C676.631924 304.03597051 680.48829253 308.62332219 684.28027344 313.32324219 C686.98432733 316.62429499 689.76811764 319.84795822 692.56152344 323.07324219 C697.93357293 329.30596942 703.07965288 335.68231781 708.09960938 342.20117188 C709.23547156 343.67534624 710.37450756 345.14707731 711.515625 346.6171875 C719.94958258 357.48846217 728.05443308 368.49843112 735.73730469 379.91308594 C738.32728791 383.75744836 741.01862616 387.51555547 743.74902344 391.26074219 C749.81955143 399.6525356 755.24145181 408.45579358 760.68652344 417.26074219 C761.15735352 418.01935547 761.62818359 418.77796875 762.11328125 419.55957031 C773.60965043 438.10521982 784.3938275 457.02226455 794.68652344 476.26074219 C795.49645752 477.76773682 795.49645752 477.76773682 796.32275391 479.30517578 C811.2101072 507.11083974 824.31597296 535.84119137 835.68652344 565.26074219 C835.93726624 565.90940247 836.18800903 566.55806274 836.4463501 567.22637939 C866.55117002 645.26617195 886.00013217 726.72833705 894.43652344 819.51074219 C894.49578003 820.21921295 894.55503662 820.92768372 894.61608887 821.65762329 C895.0159274 826.52268222 895.36232838 831.39011405 895.68652344 836.26074219 C895.75960724 837.29606079 895.75960724 837.29606079 895.83416748 838.35229492 C896.95867879 854.69301056 896.84026602 871.06252722 896.81689453 887.43261719 C896.81119869 891.45225291 896.81449011 895.47182179 896.820467 899.49145508 C896.8241349 902.65592931 896.82290596 905.82038851 896.8203392 908.98486328 C896.81968701 910.46435556 896.82043607 911.94384934 896.82281876 913.42333984 C896.83181406 920.57195438 896.74978967 927.69444669 896.32748401 934.83116059 C895.57086347 947.7655153 895.53335167 960.68123126 895.52830505 973.63397217 C895.52372923 976.14673828 895.51872775 978.65950365 895.51334149 981.17226815 C895.50266807 986.60050434 895.49495116 992.0287318 895.48994255 997.45697594 C895.4824786 1005.52835684 895.46938285 1013.59972202 895.4551968 1021.67109356 C895.43148072 1035.25368353 895.41223722 1048.83627631 895.39559746 1062.41887665 C895.37912185 1075.85538875 895.36062478 1089.29189561 895.33946419 1102.72840118 C895.33748778 1103.9844487 895.33748778 1103.9844487 895.33547144 1105.26587091 C895.32876878 1109.51891895 895.32203036 1113.77196694 895.31527818 1118.02501491 C895.26759322 1148.10114416 895.22438594 1178.17727832 895.18383789 1208.25341797 C895.1444508 1237.46077837 895.10301934 1266.66813472 895.05883789 1295.87548828 C895.05747536 1296.77676158 895.05611283 1297.67803489 895.05470901 1298.6066195 C895.04102291 1307.65808412 895.02729544 1316.70954867 895.01353767 1325.76101318 C894.98551576 1344.19771041 894.95776987 1362.63440806 894.93019104 1381.07110596 C894.92828874 1382.34246846 894.92828874 1382.34246846 894.92634801 1383.63951505 C894.84178007 1440.17991749 894.76366534 1496.72032919 894.68652344 1553.26074219 C861.0645326 1553.78865286 827.44358314 1554.19319379 793.81835985 1554.43524477 C789.83731452 1554.46400665 785.85627733 1554.49377649 781.87524414 1554.52416992 C781.08278314 1554.53020306 780.29032213 1554.5362362 779.47384716 1554.54245216 C766.68761856 1554.64219271 753.90379912 1554.82333539 741.11899381 1555.0352565 C727.97359921 1555.2513166 714.82945477 1555.37829408 701.68235785 1555.42477757 C694.30783253 1555.45334944 686.93834862 1555.52190161 679.56562614 1555.69253349 C628.00601696 1556.85154543 628.00601696 1556.85154543 615.70060825 1545.26534367 C612.12958973 1541.51324107 609.16039999 1537.43367063 606.4348073 1533.03221846 C602.968612 1527.53741397 598.3933268 1522.82868948 593.79003906 1518.26660156 C593.1124353 1517.59230103 592.43483154 1516.91800049 591.73669434 1516.2232666 C591.02920044 1515.52407104 590.32170654 1514.82487549 589.59277344 1514.10449219 C588.84241821 1513.35792358 588.09206299 1512.61135498 587.31896973 1511.84216309 C584.94392424 1509.47922194 582.56565527 1507.11956849 580.18652344 1504.76074219 C577.04813127 1501.64913572 573.91319599 1498.53410464 570.78027344 1495.41699219 C570.07277954 1494.71779663 569.36528564 1494.01860107 568.63635254 1493.29821777 C564.73614973 1489.4170279 561.05410676 1485.42617683 557.46130371 1481.26037598 C554.32356047 1477.72510037 550.95366155 1474.42595976 547.59277344 1471.10449219 C546.84241821 1470.35792358 546.09206299 1469.61135498 545.31896973 1468.84216309 C542.94392424 1466.47922194 540.56565527 1464.11956849 538.18652344 1461.76074219 C535.04813127 1458.64913572 531.91319599 1455.53410464 528.78027344 1452.41699219 C528.07277954 1451.71779663 527.36528564 1451.01860107 526.63635254 1450.29821777 C523.37074563 1447.04853023 520.20879158 1443.76450536 517.20019531 1440.27441406 C513.45855232 1435.93611997 509.44647661 1431.91186125 505.37402344 1427.88574219 C504.60147217 1427.11697754 503.8289209 1426.34821289 503.03295898 1425.55615234 C500.58658162 1423.12188454 498.13698204 1420.69090113 495.68652344 1418.26074219 C492.45438656 1415.05538041 489.22569809 1411.84660146 485.99902344 1408.63574219 C485.26965576 1407.91467285 484.54028809 1407.19360352 483.78881836 1406.45068359 C479.8351446 1402.51573032 476.09494173 1398.47677133 472.45361328 1394.25268555 C469.31916299 1390.71939183 465.95104108 1387.42337003 462.59277344 1384.10449219 C461.84241821 1383.35792358 461.09206299 1382.61135498 460.31896973 1381.84216309 C457.94392424 1379.47922194 455.56565527 1377.11956849 453.18652344 1374.76074219 C450.04813127 1371.64913572 446.91319599 1368.53410464 443.78027344 1365.41699219 C443.07277954 1364.71779663 442.36528564 1364.01860107 441.63635254 1363.29821777 C437.10594513 1358.78989546 432.83537235 1354.12138929 428.68652344 1349.26074219 C428.1060022 1348.58547485 427.52548096 1347.91020752 426.92736816 1347.21447754 C425.51094481 1345.56564085 424.09830274 1343.91355698 422.68652344 1342.26074219 C423.15437256 1341.82318604 423.62222168 1341.38562988 424.10424805 1340.93481445 C439.40605858 1326.80858775 439.40605858 1326.80858775 453.61621094 1311.61230469 C455.81327709 1309.11676917 458.07526716 1306.69329137 460.35131836 1304.27001953 C465.52738438 1298.75627154 470.53457519 1293.18623598 475.26074219 1287.27636719 C477.11478923 1284.97149712 478.99030655 1282.69629953 480.89355469 1280.43261719 C488.71484688 1271.10617779 496.03864236 1261.53952931 503.04345703 1251.58642578 C504.69791769 1249.24461415 506.37208627 1246.91796438 508.04980469 1244.59277344 C559.48474765 1172.85340696 593.8428877 1088.05759862 617.68652344 931.26074219 C617.74437012 930.32955566 617.8022168 929.39836914 617.86181641 928.43896484 C621.57993525 865.53986827 615.221578 802.28362833 599.68652344 741.26074219 C599.24252197 739.50383057 599.24252197 739.50383057 598.78955078 737.71142578 C588.73762742 698.42149304 574.14669833 660.82873378 556.68652344 624.26074219 C556.2654834 623.37338379 555.84444336 622.48602539 555.41064453 621.57177734 C549.06458281 608.26881671 541.8094485 595.56776085 534.26416016 582.91210938 C532.92560092 580.66253442 531.60051445 578.40616568 530.28417969 576.14355469 C517.17562935 553.73516115 501.9732883 532.45989893 485.68652344 512.26074219 C484.92855469 511.31972656 484.17058594 510.37871094 483.38964844 509.40917969 C481.17121442 506.6794045 478.93426607 503.96642899 476.68652344 501.26074219 C476.26935059 500.75720215 475.85217773 500.25366211 475.42236328 499.73486328 C468.91399287 491.8953997 462.16102044 484.33164834 455.20263672 476.89013672 C453.6863273 475.26053139 452.18263814 473.62018722 450.68261719 471.97558594 C442.1765032 462.65916797 433.5552509 453.40782542 423.93261719 445.22558594 C421.46947174 443.07086913 419.08708914 440.8427835 416.70214844 438.60229492 C411.16482549 433.40292024 405.57071678 428.36809686 399.63574219 423.62011719 C397.43259475 421.85759924 395.25157713 420.0782246 393.08105469 418.27636719 C383.9631226 410.73282016 374.57690108 403.67620296 364.91699219 396.84277344 C362.74907353 395.30510784 360.59172462 393.75366568 358.43652344 392.19824219 C295.26450225 346.79657389 222.24781073 315.10986517 146.68652344 297.26074219 C145.56149414 296.99068359 144.43646484 296.720625 143.27734375 296.44238281 C111.2644488 288.84483083 78.48241016 284.56623653 45.68652344 282.26074219 C44.69700684 282.19016602 43.70749023 282.11958984 42.68798828 282.046875 C-32.29305682 276.99557665 -108.90506368 287.26906335 -180.31347656 310.26074219 C-180.95907532 310.46828125 -181.60467407 310.67582031 -182.26983643 310.88964844 C-213.39164913 320.92900495 -243.09301709 333.61519005 -272.31347656 348.26074219 C-273.26899414 348.73721191 -274.22451172 349.21368164 -275.20898438 349.70458984 C-319.19446959 371.76082648 -361.68552396 400.72234348 -397.94238281 434.10058594 C-399.97575558 435.95306557 -402.03466331 437.76478367 -404.11035156 439.56933594 C-408.14986902 443.09598826 -412.09266189 446.71465006 -416.00097656 450.38574219 C-416.68796631 451.03099854 -417.37495605 451.67625488 -418.08276367 452.34106445 C-426.50520028 460.28677773 -434.95193432 468.27831026 -442.45019531 477.11621094 C-444.45406272 479.4225489 -446.52601376 481.65298109 -448.61181641 483.88500977 C-454.45456692 490.14122219 -459.95576436 496.5811108 -465.31347656 503.26074219 C-466.29624306 504.4534756 -467.28072587 505.64479619 -468.26660156 506.83496094 C-495.07622748 539.28958482 -517.76156185 575.02278076 -537.31347656 612.26074219 C-537.79349121 613.17017578 -538.27350586 614.07960938 -538.76806641 615.01660156 C-552.61099949 641.41840521 -563.8258081 669.0201368 -573.31347656 697.26074219 C-573.67135254 698.32196289 -574.02922852 699.38318359 -574.39794922 700.4765625 C-600.46367801 778.34957814 -610.04467807 861.25055924 -540.23144531 1168.49121094 C-521.45083937 1206.05640991 -498.68212395 1241.55784226 -472.31347656 1274.26074219 C-471.55550781 1275.20175781 -470.79753906 1276.14277344 -470.01660156 1277.11230469 C-467.79816755 1279.84207988 -465.5612192 1282.55505538 -463.31347656 1285.26074219 C-462.68771729 1286.01605225 -462.68771729 1286.01605225 -462.04931641 1286.78662109 C-455.540946 1294.62608467 -448.78797357 1302.18983604 -441.82958984 1309.63134766 C-440.31328042 1311.26095298 -438.80959126 1312.90129716 -437.30957031 1314.54589844 C-428.11992946 1324.61095695 -418.75482504 1334.47391145 -408.31347656 1343.26074219 C-406.97957212 1344.40591063 -405.64621388 1345.55171567 -404.31347656 1346.69824219 C-403.32347656 1347.54386719 -402.33347656 1348.38949219 -401.31347656 1349.26074219 C-405.76286785 1355.64536194 -410.86464668 1361.06275747 -416.40332031 1366.51074219 C-417.26607071 1367.36829102 -418.12882111 1368.22583984 -419.01771545 1369.109375 C-421.75737967 1371.83134258 -424.50366753 1374.54649256 -427.25097656 1377.26074219 C-429.99384077 1379.97584705 -432.7351708 1382.69245674 -435.473526 1385.41210938 C-437.17141997 1387.09789724 -438.87197881 1388.78100695 -440.57566833 1390.4609375 C-444.7570814 1394.60738166 -448.73974897 1398.83538944 -452.5783844 1403.29956055 C-455.6981836 1406.82588212 -459.05964325 1410.10867336 -462.40722656 1413.41699219 C-463.15758179 1414.16356079 -463.90793701 1414.91012939 -464.68103027 1415.67932129 C-467.8556416 1418.83775331 -471.03623572 1421.99013498 -474.21630859 1425.14306641 C-476.55288017 1427.46143964 -478.88635656 1429.78289739 -481.21972656 1432.10449219 C-481.92722046 1432.80368774 -482.63471436 1433.5028833 -483.36364746 1434.2232666 C-486.63376588 1437.47744365 -489.79989438 1440.76653917 -492.81347656 1444.26074219 C-496.48380472 1448.51643224 -500.41161162 1452.46824262 -504.40722656 1456.41699219 C-505.15758179 1457.16356079 -505.90793701 1457.91012939 -506.68103027 1458.67932129 C-509.8556416 1461.83775331 -513.03623572 1464.99013498 -516.21630859 1468.14306641 C-518.55288017 1470.46143964 -520.88635656 1472.78289739 -523.21972656 1475.10449219 C-523.92722046 1475.80368774 -524.63471436 1476.5028833 -525.36364746 1477.2232666 C-528.63376588 1480.47744365 -531.79989438 1483.76653917 -534.81347656 1487.26074219 C-538.48380472 1491.51643224 -542.41161162 1495.46824262 -546.40722656 1499.41699219 C-547.15758179 1500.16356079 -547.90793701 1500.91012939 -548.68103027 1501.67932129 C-551.8556416 1504.83775331 -555.03623572 1507.99013498 -558.21630859 1511.14306641 C-560.55288017 1513.46143964 -562.88635656 1515.78289739 -565.21972656 1518.10449219 C-565.92722046 1518.80368774 -566.63471436 1519.5028833 -567.36364746 1520.2232666 C-568.04125122 1520.89756714 -568.71885498 1521.57186768 -569.41699219 1522.26660156 C-570.29466248 1523.13641663 -570.29466248 1523.13641663 -571.19006348 1524.02380371 C-574.33690572 1527.3388876 -577.3035704 1530.82084943 -580.31347656 1534.26074219 C-586.58347656 1540.53074219 -592.85347656 1546.80074219 -599.31347656 1553.26074219 C-694.35347656 1553.26074219 -789.39347656 1553.26074219 -887.31347656 1553.26074219 C-887.31347656 1041.10074219 -887.31347656 528.94074219 -887.31347656 1.26074219 C-794.91347656 1.26074219 -702.51347656 1.26074219 -607.31347656 1.26074219 C-606.98347656 80.46074219 -606.65347656 159.66074219 -606.31347656 241.26074219 C-601.03347656 236.31074219 -595.75347656 231.36074219 -590.31347656 226.26074219 C-569.80375409 208.31473503 -569.80375409 208.31473503 -559.69458008 200.4699707 C-555.94913 197.56040618 -552.26234686 194.59092486 -548.60229492 191.57470703 C-539.10813488 183.76123029 -529.28513889 176.45129367 -519.31347656 169.26074219 C-518.63269043 168.76783691 -517.9519043 168.27493164 -517.25048828 167.76708984 C-449.18306364 118.60821941 -374.39003829 79.38955918 -173.31347656 17.26074219 C-172.65357727 17.12343689 -171.99367798 16.98613159 -171.31378174 16.84466553 C-115.04350374 5.15043072 -57.43204761 -0.16890692 0 0 Z " fill="#FFC000" transform="translate(895.3134765625,6.7392578125)"/>
<path d="M0 0 C92.4 0 184.8 0 280 0 C280 512.16 280 1024.32 280 1552 C187.6 1552 95.2 1552 0 1552 C0 1039.84 0 527.68 0 0 Z " fill="#7CFF00" transform="translate(8,8)"/>
<path d="M0 0 C1.07019327 0.89597576 2.14051321 1.79180024 3.2109375 2.6875 C16.32071306 13.72662434 29.47104761 25.30552246 40.8125 38.1875 C41.37582031 38.82042969 41.93914063 39.45335937 42.51953125 40.10546875 C43.99579924 41.99462436 44.96210098 43.84797209 46 46 C42.58942868 49.43553609 39.1753981 52.86758565 35.75830078 56.29663086 C34.59949681 57.46042274 33.44159678 58.62511549 32.28466797 59.79077148 C30.60889423 61.47885644 28.92975246 63.16353138 27.25 64.84765625 C26.4916687 65.61372948 26.4916687 65.61372948 25.71801758 66.39527893 C22.94113202 69.17258404 20.09388711 71.81359084 17.11914062 74.37866211 C12.82930203 78.09543578 8.83205305 82.05811213 4.84375 86.09375 C4.0971814 86.84410522 3.35061279 87.59446045 2.5814209 88.36755371 C0.21847975 90.7425992 -2.1411737 93.12086817 -4.5 95.5 C-7.61160646 98.63839217 -10.72663755 101.77332745 -13.84375 104.90625 C-14.54294556 105.6137439 -15.24214111 106.32123779 -15.96252441 107.0501709 C-19.84371428 110.95037371 -23.83456536 114.63241668 -28.00036621 118.22521973 C-31.53564181 121.36296297 -34.83478243 124.73286189 -38.15625 128.09375 C-38.9028186 128.84410522 -39.64938721 129.59446045 -40.4185791 130.36755371 C-42.78152025 132.7425992 -45.1411737 135.12086817 -47.5 137.5 C-50.61160646 140.63839217 -53.72663755 143.77332745 -56.84375 146.90625 C-57.54294556 147.6137439 -58.24214111 148.32123779 -58.96252441 149.0501709 C-62.86573815 152.97250546 -66.87990197 156.67720569 -71.0697937 160.29019165 C-74.19773531 163.06097355 -77.10267438 166.03765794 -80.01953125 169.02734375 C-81.30115174 170.32644871 -82.58306081 171.62526902 -83.86523438 172.92382812 C-85.85442963 174.9441857 -87.84115347 176.96681457 -89.82299805 178.99438477 C-91.75686771 180.97037223 -93.69988949 182.93696478 -95.64453125 184.90234375 C-96.53517021 185.82091408 -96.53517021 185.82091408 -97.44380188 186.75804138 C-98.90653362 188.2298844 -100.44768708 189.6229631 -102 191 C-105 191 -105 191 -106.6484375 189.4609375 C-107.21820312 188.77257812 -107.78796875 188.08421875 -108.375 187.375 C-109.30119141 186.27478516 -109.30119141 186.27478516 -110.24609375 185.15234375 C-111.65489469 183.42350339 -113.04867785 181.6824304 -114.4375 179.9375 C-116.99812172 177.00215315 -119.64682218 174.53478362 -122.61328125 172.0234375 C-124.32083551 170.57578921 -126.0031662 169.09817855 -127.66796875 167.6015625 C-170.30133771 129.65075857 -226.32182686 113.39023247 -282.65136719 116.12890625 C-339.29695804 119.67351603 -390.09406469 147.75225364 -428 189 C-442.66288625 205.80867449 -454.33469263 225.49714806 -463 246 C-463.31662598 246.74894531 -463.63325195 247.49789063 -463.95947266 248.26953125 C-484.62061812 298.24468833 -484.74218005 357.64054287 -464.02001953 407.61376953 C-452.73413296 434.01593693 -437.76086454 457.23913546 -417.41796875 477.58203125 C-415.96856049 479.03143951 -414.53629462 480.49877553 -413.140625 482 C-379.70476583 517.37016507 -326.83443347 538.35931245 -278.69091797 540.12109375 C-221.3413693 541.66295552 -166.8169072 524.33511438 -124.265625 485.078125 C-122.1982212 483.18181669 -120.08249907 481.36970394 -117.9375 479.5625 C-114.00659851 476.14882239 -110.59803263 472.34619456 -107.17578125 468.4296875 C-104.87146633 465.85646689 -102.4502335 463.43378558 -100 461 C-99.25427734 461.75095947 -98.50855469 462.50191895 -97.74023438 463.27563477 C-94.93980261 466.0943374 -92.13592255 468.90958919 -89.33105469 471.72387695 C-88.12374935 472.93617248 -86.91734766 474.1493687 -85.71191406 475.36352539 C-83.96663661 477.12110372 -82.21799948 478.87528209 -80.46875 480.62890625 C-79.94132202 481.16149551 -79.41389404 481.69408478 -78.8704834 482.24281311 C-76.03808717 485.0756208 -73.13965531 487.77595753 -70.10546875 490.39233398 C-65.81964912 494.1039522 -61.82754118 498.06267755 -57.84375 502.09375 C-57.0971814 502.84410522 -56.35061279 503.59446045 -55.5814209 504.36755371 C-52.42298888 507.54216504 -49.27060721 510.72275916 -46.11767578 513.90283203 C-43.79930255 516.23940361 -41.4778448 518.57287999 -39.15625 520.90625 C-38.45705444 521.6137439 -37.75785889 522.32123779 -37.03747559 523.0501709 C-33.78329853 526.32028932 -30.49420302 529.48641782 -27 532.5 C-22.74430995 536.17032816 -18.79249957 540.09813505 -14.84375 544.09375 C-14.0971814 544.84410522 -13.35061279 545.59446045 -12.5814209 546.36755371 C-9.42298888 549.54216504 -6.27060721 552.72275916 -3.11767578 555.90283203 C-0.79930255 558.23940361 1.5221552 560.57287999 3.84375 562.90625 C4.54294556 563.6137439 5.24214111 564.32123779 5.96252441 565.0501709 C9.87717869 568.98400205 13.90098963 572.70674557 18.10339355 576.33047485 C21.01308238 578.8917857 23.74205223 581.61771316 26.46875 584.37109375 C27.03452759 584.93828629 27.60030518 585.50547882 28.18322754 586.08985901 C29.95788577 587.87003423 31.72900099 589.65368519 33.5 591.4375 C34.71591114 592.6584369 35.93205516 593.87914192 37.1484375 595.09960938 C40.10164966 598.06374013 43.05169398 601.03098958 46 604 C45.60167969 604.46398193 45.20335937 604.92796387 44.79296875 605.40600586 C41.56868173 609.16071759 41.56868173 609.16071759 38.375 612.94140625 C30.75058308 621.93042052 22.21550749 630.52385578 13.20703125 638.12890625 C11.40782581 639.65425033 9.64402702 641.2045763 7.88671875 642.77734375 C-58.17321423 701.56018391 -145.83621418 738.48060894 -234 745 C-235.14533203 745.08540039 -236.29066406 745.17080078 -237.47070312 745.25878906 C-325.3058652 751.30368552 -413.3305558 731.11923323 -545.06616211 643.71289062 C-553.6641665 636.09723619 -561.97171128 628.21483824 -570.09204102 620.09326172 C-571.69204519 618.49546107 -573.29993615 616.90588449 -574.90820312 615.31640625 C-581.40313376 608.85623913 -587.30638361 602.18627726 -593 595 C-594.55925805 593.16390858 -596.12103933 591.32995036 -597.6875 589.5 C-651.64230304 524.62080871 -684.68340025 440.18243989 -690 356 C-690.05494629 355.19852539 -690.10989258 354.39705078 -690.16650391 353.57128906 C-696.61553912 257.34940082 -670.47787605 154.55640938 -608.36132812 73.7421875 C-607.03035531 72.03884783 -605.72269823 70.3201882 -604.421875 68.59375 C-598.553719 60.82377069 -592.40099516 53.33510609 -586 46 C-585.23042969 45.11699219 -584.46085938 44.23398437 -583.66796875 43.32421875 C-577.66810691 36.62647314 -571.35713287 30.22992653 -565.02429199 23.84906006 C-564.02511139 22.84183768 -563.02741559 21.83313969 -562.03137207 20.82281494 C-555.37153413 14.07770992 -548.41342012 7.91862218 -541 2 C-539.89828422 1.06508802 -538.80193811 0.1237489 -537.71484375 -0.828125 C-473.0489843 -57.21748204 -387.62789997 -88.40464243 -303 -96 C-302.20577637 -96.07202637 -301.41155273 -96.14405273 -300.59326172 -96.21826172 C-199.04777662 -104.87361959 -96.56080447 -72.93409782 0 0 Z " fill="#46A2F5" transform="translate(1176,579)"/>
<path d="M0 0 C4.19198545 1.64130143 6.99567254 4.72311349 10.09967041 7.85916138 C10.70745386 8.46523598 11.31523731 9.07131058 11.94143844 9.69575107 C13.97908993 11.73010536 16.00950562 13.77153109 18.04003906 15.81298828 C19.49830905 17.27182234 20.95701942 18.73021629 22.4161377 20.1882019 C26.37894334 24.15043284 30.33554475 28.11880769 34.29108143 32.08829355 C38.42483867 36.23453851 42.56424613 40.37513457 46.70306396 44.5163269 C54.54095564 52.3604391 62.37373436 60.20963642 70.20470023 68.06066215 C79.1196669 76.99796998 88.04030141 85.92961128 96.96142244 94.86077523 C115.31393973 113.23420749 133.65930858 131.61476347 152 150 C151.37885047 150.82478773 151.37885047 150.82478773 150.74515247 151.66623783 C150.20307494 152.38723887 149.66099741 153.10823992 149.10249329 153.85108948 C148.5646436 154.56594796 148.02679392 155.28080645 147.47264576 156.01732731 C114.43861591 200.49215667 100.17071076 257.2475515 107.51953125 312.06811523 C113.03773759 348.96501594 127.47626742 380.21440113 148 411 C99.49 459.51 50.98 508.02 1 558 C-3.18487673 555.90756164 -5.44451842 553.55608608 -8.375 550.0625 C-8.89320313 549.44987305 -9.41140625 548.83724609 -9.9453125 548.20605469 C-25.0019682 530.14703014 -38.33924002 510.40751068 -50 490 C-50.44811035 489.21737793 -50.8962207 488.43475586 -51.35791016 487.62841797 C-98.34465392 404.96037031 -115.55937941 308.03036822 -91.42579651 168.27227783 C-77.51002633 118.48100632 -55.40228604 69.5621005 -23.36132812 28.7421875 C-22.03035531 27.03884783 -20.72269823 25.3201882 -19.421875 23.59375 C-6.53201197 6.53201197 -6.53201197 6.53201197 0 0 Z " fill="#46A2F5" transform="translate(591,624)"/>
<path d="M0 0 C92.4 0 184.8 0 280 0 C280 102.63 280 205.26 280 311 C275.8018662 307.4015996 271.79979578 303.93167764 267.87512302 300.08755684 C267.4061201 299.62929484 266.93711717 299.17103285 266.45390204 298.69888413 C264.89851781 297.1779525 263.34626072 295.65387219 261.79408264 294.12966919 C260.66211575 293.02107845 259.52999929 291.91264042 258.39774698 290.8043412 C255.29864527 287.7693746 252.20260153 284.73130582 249.10730445 281.69245958 C247.12570343 279.74739294 245.1432944 277.80315329 243.16065216 275.85914803 C218.05986803 251.24569156 193.05045122 226.53984925 168.07821834 201.7960263 C163.99728491 197.75245017 159.91571288 193.70951922 155.83374023 189.66699219 C155.02126091 188.8623413 154.20878159 188.05769041 153.37168168 187.22865616 C140.22254639 174.20957986 127.01656133 161.24968787 113.78817505 148.31120004 C100.18621717 135.0048536 86.64619022 121.63779247 73.16130441 108.21280658 C64.85419494 99.94633985 56.50356853 91.72971588 48.0894702 83.57215063 C42.31700371 77.96656612 36.60625988 72.30257424 30.93905462 66.59061189 C27.67420125 63.30341946 24.3899422 60.0467388 21.02927971 56.85731316 C17.938517 53.92287553 14.93407561 50.9205187 11.97599845 47.85255037 C10.90634427 46.76891867 9.81009447 45.71061935 8.68391574 44.68585636 C4.21566401 40.59673408 3.06125795 37.9034773 0 32 C0 21.44 0 10.88 0 0 Z " fill="#7CFF00" transform="translate(8,8)"/>
<path d="M0 0 C15.27550376 -3.76795642 32.83185734 -5.83274151 47.27114677 1.70840883 C64.85057208 12.84469621 79.62582305 28.63557427 94.23189132 43.29410337 C98.68449536 47.76226962 103.17384644 52.19020862 107.68955231 56.59456444 C121.98351717 70.54291728 136.14453248 84.61348832 150.21275654 98.78933176 C161.21525602 109.8660953 172.40046239 120.73418099 183.68803868 131.51961658 C195.37052173 142.68649157 206.90200293 153.99203353 218.29771733 165.45158547 C224.66300222 171.84729246 231.06920029 178.17756399 237.63863373 184.36400795 C261.72184643 207.11095796 282.027491 226.95799554 283.30151391 261.60589737 C283.66139418 278.13277684 282.24969449 294.63968671 280 311 C273.61021896 305.70353131 267.71109373 299.9400373 261.79408264 294.12966919 C260.66211575 293.02107845 259.52999929 291.91264042 258.39774698 290.8043412 C255.29864527 287.7693746 252.20260153 284.73130582 249.10730445 281.69245958 C247.12570343 279.74739294 245.1432944 277.80315329 243.16065216 275.85914803 C218.05986803 251.24569156 193.05045122 226.53984925 168.07821834 201.7960263 C163.99728491 197.75245017 159.91571288 193.70951922 155.83374023 189.66699219 C155.02126091 188.8623413 154.20878159 188.05769041 153.37168168 187.22865616 C140.22254639 174.20957986 127.01656133 161.24968787 113.78817505 148.31120004 C100.18621717 135.0048536 86.64619022 121.63779247 73.16130441 108.21280658 C64.85419494 99.94633985 56.50356853 91.72971588 48.0894702 83.57215063 C42.31700371 77.96656612 36.60625988 72.30257424 30.93905462 66.59061189 C27.67420125 63.30341946 24.3899422 60.0467388 21.02927971 56.85731316 C-0.85416056 36.03686347 -0.85416056 36.03686347 -1.63836263 20.85503682 C-1.76388119 13.84436256 -1.10343121 6.92189328 0 0 Z " fill="#01FF00" transform="translate(8,8)"/>
<path d="M0 0 C5.99794745 4.97158274 11.49124465 10.35088675 16.99107361 15.86408997 C17.99098101 16.86284365 18.99110605 17.86137949 19.99142843 18.85971755 C22.72563876 21.58976942 25.45674109 24.32291174 28.18731987 27.05659521 C31.13771132 30.00925457 34.09098537 32.95902838 37.04388428 35.90917969 C42.82094906 41.68180369 48.59531433 47.4571207 54.36870801 53.23341606 C59.05825674 57.92522415 63.74878181 62.6160541 68.44000435 67.30618858 C69.10791798 67.97394898 69.77583161 68.64170938 70.46398504 69.32970494 C71.82080907 70.68620924 73.17763534 72.0427113 74.53446383 73.39921113 C87.24751616 86.10941397 99.9575049 98.8226768 112.66644431 111.53699198 C123.58131142 122.4563328 134.49880638 133.37304046 145.41821289 144.2878418 C158.09666673 156.96095111 170.77350594 169.6356719 183.44775015 182.31299132 C184.7974 183.66295973 186.14705195 185.01292605 187.49670601 186.36289024 C188.16079167 187.02713018 188.82487733 187.69137012 189.5090868 188.37573854 C194.19904768 193.06656448 198.89017132 197.75622569 203.58173943 202.44544411 C209.29094332 208.15185144 214.99837849 213.86002063 220.70351207 219.57049749 C223.6166606 222.48628404 226.53062124 225.40124697 229.44673347 228.31406975 C232.11135994 230.97573568 234.77370189 233.63966388 237.43417115 236.30548497 C238.86274503 237.7357206 240.2937991 239.16347757 241.72491401 240.59117061 C242.97768618 241.84785439 242.97768618 241.84785439 244.25576687 243.12992573 C245.3482263 244.22262869 245.3482263 244.22262869 246.46275562 245.33740646 C248 247 248 247 248 248 C237.96921592 248.53861227 227.94198525 248.94428339 217.8995657 249.19167995 C213.23270088 249.31059258 208.57587419 249.47094476 203.91479492 249.73510742 C170.12187063 251.60026389 170.12187063 251.60026389 158.86781788 241.58531666 C153.63793252 236.54045313 149.30308212 230.84026138 145 225 C140.30398755 219.28230658 135.16489813 214.04071838 129.90625 208.84375 C129.15589478 208.0971814 128.40553955 207.35061279 127.63244629 206.5814209 C125.2574008 204.21847975 122.87913183 201.8588263 120.5 199.5 C117.36160783 196.38839354 114.22667255 193.27336245 111.09375 190.15625 C110.03250916 189.10745667 110.03250916 189.10745667 108.9498291 188.03747559 C105.04962629 184.15628572 101.36758332 180.16543464 97.77478027 175.99963379 C94.63703703 172.46435819 91.26713811 169.16521757 87.90625 165.84375 C87.15589478 165.0971814 86.40553955 164.35061279 85.63244629 163.5814209 C83.2574008 161.21847975 80.87913183 158.8588263 78.5 156.5 C75.36160783 153.38839354 72.22667255 150.27336245 69.09375 147.15625 C68.03250916 146.10745667 68.03250916 146.10745667 66.9498291 145.03747559 C63.68422219 141.78778805 60.52226814 138.50376317 57.51367188 135.01367188 C53.77202888 130.67537778 49.75995317 126.65111906 45.6875 122.625 C44.91494873 121.85623535 44.14239746 121.0874707 43.34643555 120.29541016 C40.90005818 117.86114235 38.4504586 115.43015894 36 113 C32.76786312 109.79463822 29.53917465 106.58585927 26.3125 103.375 C25.58313232 102.65393066 24.85376465 101.93286133 24.10229492 101.18994141 C20.14862117 97.25498813 16.40841829 93.21602914 12.76708984 88.99194336 C9.63263956 85.45864965 6.26451764 82.16262784 2.90625 78.84375 C2.15589478 78.0971814 1.40553955 77.35061279 0.63244629 76.5814209 C-1.7425992 74.21847975 -4.12086817 71.8588263 -6.5 69.5 C-9.63839217 66.38839354 -12.77332745 63.27336245 -15.90625 60.15625 C-16.6137439 59.45705444 -17.32123779 58.75785889 -18.0501709 58.03747559 C-22.58057831 53.52915327 -26.85115109 48.8606471 -31 44 C-31.58052124 43.32473267 -32.16104248 42.64946533 -32.75915527 41.95373535 C-34.17557862 40.30489866 -35.5882207 38.65281479 -37 37 C-36.53215088 36.56244385 -36.06430176 36.1248877 -35.58227539 35.67407227 C-19.99287426 21.24364612 -19.99287426 21.24364612 -5.5078125 5.73046875 C-3.76065928 3.72531622 -1.91829882 1.84156687 0 0 Z " fill="#FF8300" transform="translate(1355,1312)"/>
<path d="M0 0 C3.01720051 1.43573406 4.7747561 2.63888596 6.875 5.25 C14.7451949 14.54804883 23.65457297 23.19479925 33 31 C34.33426255 32.14475117 35.6676287 33.29054816 37 34.4375 C37.99 35.283125 38.98 36.12875 40 37 C35.55060871 43.38461975 30.44882988 48.80201528 24.91015625 54.25 C24.04740585 55.10754883 23.18465546 55.96509766 22.29576111 56.84863281 C19.55609689 59.5706004 16.80980903 62.28575037 14.0625 65 C11.3196358 67.71510486 8.57830576 70.43171455 5.83995056 73.15136719 C4.14205659 74.83715505 2.44149776 76.52026477 0.73780823 78.20019531 C-3.44360484 82.34663947 -7.42627241 86.57464725 -11.26490784 91.03881836 C-14.38470704 94.56513993 -17.74616669 97.84793118 -21.09375 101.15625 C-21.84410522 101.9028186 -22.59446045 102.64938721 -23.36755371 103.4185791 C-26.54216504 106.57701112 -29.72275916 109.72939279 -32.90283203 112.88232422 C-35.23940361 115.20069745 -37.57287999 117.5221552 -39.90625 119.84375 C-40.6137439 120.54294556 -41.32123779 121.24214111 -42.0501709 121.96252441 C-45.32028932 125.21670147 -48.48641782 128.50579698 -51.5 132 C-55.17032816 136.25569005 -59.09813505 140.20750043 -63.09375 144.15625 C-63.84410522 144.9028186 -64.59446045 145.64938721 -65.36755371 146.4185791 C-68.54216504 149.57701112 -71.72275916 152.72939279 -74.90283203 155.88232422 C-77.23940361 158.20069745 -79.57287999 160.5221552 -81.90625 162.84375 C-82.96749084 163.89254333 -82.96749084 163.89254333 -84.0501709 164.96252441 C-87.32028932 168.21670147 -90.48641782 171.50579698 -93.5 175 C-97.17032816 179.25569005 -101.09813505 183.20750043 -105.09375 187.15625 C-105.84410522 187.9028186 -106.59446045 188.64938721 -107.36755371 189.4185791 C-110.54216504 192.57701112 -113.72275916 195.72939279 -116.90283203 198.88232422 C-119.23940361 201.20069745 -121.57287999 203.5221552 -123.90625 205.84375 C-124.6137439 206.54294556 -125.32123779 207.24214111 -126.0501709 207.96252441 C-130.01617124 211.90919106 -133.7884817 215.96012165 -137.44229126 220.1973877 C-140.96155745 224.26995426 -144.69710873 228.13185907 -148.4375 232 C-149.24509766 232.87011719 -150.05269531 233.74023438 -150.88476562 234.63671875 C-152.08456055 235.86841797 -152.08456055 235.86841797 -153.30859375 237.125 C-154.01814209 237.87007812 -154.72769043 238.61515625 -155.45874023 239.3828125 C-159.0866624 241.69152193 -161.73483027 241.11223105 -166 241 C-172.21161326 215.89597071 -176.93572731 183.79921985 -162.91992188 160.53211212 C-144.25507865 132.28711085 -116.90207974 109.38834998 -92.06656837 86.6645726 C-84.93336631 80.1314638 -77.89937406 73.50303149 -70.92285156 66.80297852 C-70.4270103 66.32684151 -69.93116903 65.85070451 -69.42030227 65.36013911 C-66.93165748 62.96941902 -64.44456401 60.57709233 -61.95823479 58.18396437 C-41.53992357 38.53500647 -20.86226008 19.17638235 0 0 Z " fill="#FF8300" transform="translate(454,1319)"/>
<path d="M0 0 C4.06570012 1.88641479 7.06886829 4.58266495 10.3125 7.625 C10.89717041 8.16914551 11.48184082 8.71329102 12.08422852 9.27392578 C15.60708507 12.58811139 18.86945143 15.99494176 21.96875 19.7109375 C27.02123746 25.40470221 32.58558107 30.65316744 38 36 C36.63395898 39.05735288 35.08849555 41.1606509 32.72413445 43.52196121 C32.04437361 44.20570415 31.36461277 44.88944708 30.66425312 45.5939095 C29.91523483 46.33710211 29.16621654 47.08029471 28.39450073 47.8460083 C27.20362372 49.03944859 27.20362372 49.03944859 25.98868859 50.25699878 C23.31864561 52.93034441 20.64150139 55.59646412 17.96435547 58.26269531 C16.05176843 60.17360559 14.14069138 62.08602339 12.22955322 63.99838257 C8.10980959 68.11917516 3.98641845 72.23628859 -0.13946915 76.35092926 C-6.10481079 82.30002031 -12.06462546 88.25462302 -18.02310346 94.21058759 C-27.69036837 103.87347471 -37.36209164 113.53188659 -47.03662109 123.1875 C-56.43479637 132.56731866 -65.83086983 141.94923455 -75.22412109 151.33398438 C-75.80307279 151.91241062 -76.38202448 152.49083687 -76.97852017 153.08679119 C-79.88292311 155.98858406 -82.78728474 158.89041827 -85.69162583 161.79227304 C-109.78801637 185.86792845 -133.89164305 209.9363273 -158 234 C-164.67917032 230.84505012 -169.45546581 224.87324069 -174.1875 219.3125 C-177.67106065 215.25382321 -181.41328778 211.47333263 -185.1875 207.6875 C-185.79424561 207.07624268 -186.40099121 206.46498535 -187.02612305 205.83520508 C-189.87959517 202.9911959 -192.66707973 200.29086579 -196 198 C-194.63395898 194.94264712 -193.08849555 192.8393491 -190.72413445 190.47803879 C-190.04437361 189.79429585 -189.36461277 189.11055292 -188.66425312 188.4060905 C-187.91523483 187.66289789 -187.16621654 186.91970529 -186.39450073 186.1539917 C-185.60058272 185.35836484 -184.80666472 184.56273798 -183.98868859 183.74300122 C-181.31864561 181.06965559 -178.64150139 178.40353588 -175.96435547 175.73730469 C-174.05176843 173.82639441 -172.14069138 171.91397661 -170.22955322 170.00161743 C-166.10980959 165.88082484 -161.98641845 161.76371141 -157.86053085 157.64907074 C-151.89518921 151.69997969 -145.93537454 145.74537698 -139.97689654 139.78941241 C-130.30963163 130.12652529 -120.63790836 120.46811341 -110.96337891 110.8125 C-101.56520363 101.43268134 -92.16913017 92.05076545 -82.77587891 82.66601562 C-82.19692721 82.08758938 -81.61797552 81.50916313 -81.02147983 80.91320881 C-78.11707689 78.01141594 -75.21271526 75.10958173 -72.30837417 72.20772696 C-48.21198363 48.13207155 -24.10835695 24.0636727 0 0 Z " fill="#FF8300" transform="translate(1517,256)"/>
<path d="M0 0 C5.32233736 4.44553162 10.27655301 9.1367925 15.16880798 14.04855347 C16.35996785 15.2384317 16.35996785 15.2384317 17.57519156 16.45234787 C20.22299859 19.09851396 22.86722674 21.74822691 25.51147461 24.39794922 C27.41374629 26.30050309 29.31621545 28.20285755 31.21893311 30.10496521 C35.30856605 34.19407515 39.39637177 38.28500431 43.48292351 42.37719345 C49.39131145 48.29372668 55.30247609 54.20747936 61.21431059 60.12056853 C70.80702314 69.71546683 80.39750283 79.31259371 89.98657227 88.91113281 C99.29854795 98.23229493 108.61157887 107.55240066 117.92602539 116.87109375 C118.50067647 117.44600756 119.07532755 118.02092136 119.66739231 118.6132568 C122.55040639 121.49757597 125.43344117 124.38187444 128.31648624 127.26616263 C152.21420074 151.17423493 176.10828888 175.08592844 200 199 C199.0584568 200.11408626 198.11465429 201.22626335 197.16992188 202.33764648 C196.64458862 202.95719711 196.11925537 203.57674774 195.57800293 204.21507263 C193.38472999 206.69595072 190.97682818 208.86744582 188.5 211.0625 C183.72665516 215.35522997 179.10641332 219.77761193 174.5625 224.3125 C173.98371094 224.88685791 173.40492188 225.46121582 172.80859375 226.05297852 C169.32322886 229.54999506 166.10642569 233.16196751 163 237 C158.29442602 233.01524149 153.68983355 228.94095546 149.15992737 224.75794983 C148.50874512 224.15771718 147.85756287 223.55748453 147.18664783 222.93906301 C145.02287656 220.94210631 142.86176551 218.94230815 140.70141602 216.94165039 C139.94089872 216.2377952 139.18038143 215.53394001 138.39681816 214.80875587 C123.31195616 200.8342792 108.43121648 186.65097648 93.62315464 172.38395023 C84.21481219 163.32831951 74.75142388 154.35036384 65.12036133 145.53149414 C-5.328585 80.91500947 -5.328585 80.91500947 -7.33609486 46.98147869 C-7.84277565 32.24619347 -6.55466108 16.07557651 -2 2 C-1.34 1.34 -0.68 0.68 0 0 Z " fill="#FF8300" transform="translate(290,247)"/>
<path d="M0 0 C4.63893281 3.87896193 9.04508633 7.90182991 13.30857849 12.18832397 C13.902591 12.78148206 14.49660352 13.37464015 15.10861641 13.98577273 C17.07926504 15.95478691 19.04634098 17.92733027 21.01342773 19.89990234 C22.43294649 21.31970344 23.85268601 22.73928385 25.27262878 24.15866089 C29.11317678 27.99892273 32.95064015 31.84225347 36.78754687 35.68615294 C40.80294538 39.70781522 44.821188 43.72663379 48.83912659 47.74575806 C56.44116783 55.3509037 64.04065697 62.95859422 71.63922697 70.56720793 C80.29262656 79.23179633 88.94887586 87.89353538 97.60536277 96.55503917 C115.40674234 114.36686295 133.20454973 132.18225251 151 150 C149.34156033 153.57340555 147.73792819 155.18959812 144.5625 157.5625 C138.69132307 162.22513453 133.41751107 167.38183732 128.125 172.6875 C127.30459229 173.50742432 126.48418457 174.32734863 125.63891602 175.17211914 C121.54656396 179.30055674 117.62658998 183.45575061 114 188 C109.36106719 184.12103807 104.95491367 180.09817009 100.69142151 175.81167603 C99.80040274 174.92193889 99.80040274 174.92193889 98.89138359 174.01422727 C96.92073496 172.04521309 94.95365902 170.07266973 92.98657227 168.10009766 C91.56705351 166.68029656 90.14731399 165.26071615 88.72737122 163.84133911 C84.88682322 160.00107727 81.04935985 156.15774653 77.21245313 152.31384706 C73.19705462 148.29218478 69.178812 144.27336621 65.16087341 140.25424194 C57.55883217 132.6490963 49.95934303 125.04140578 42.36077303 117.43279207 C33.70737344 108.76820367 25.05112414 100.10646462 16.39463723 91.44496083 C-1.40674234 73.63313705 -19.20454973 55.81774749 -37 38 C-35.21802407 34.97439791 -33.56666897 32.31655807 -31.07666016 29.83374023 C-30.23030502 28.98277016 -30.23030502 28.98277016 -29.36685181 28.11460876 C-28.76368134 27.51862381 -28.16051086 26.92263885 -27.5390625 26.30859375 C-26.91148041 25.68146988 -26.28389832 25.05434601 -25.63729858 24.40821838 C-24.313301 23.08723255 -22.98688316 21.76866859 -21.65820312 20.45239258 C-19.63355116 18.44597415 -17.61699321 16.43169224 -15.6015625 14.41601562 C-14.31036608 13.12973612 -13.01871435 11.84391346 -11.7265625 10.55859375 C-10.82787949 9.66157997 -10.82787949 9.66157997 -9.91104126 8.7464447 C-6.74712735 5.61791002 -3.5419828 2.7082571 0 0 Z " fill="#0048ED" transform="translate(629,586)"/>
<path d="M0 0 C2.8447301 2.8447301 5.64745123 5.64999309 8.375 8.59375 C8.96796875 9.23183594 9.5609375 9.86992188 10.171875 10.52734375 C11.390625 11.84244792 12.609375 13.15755208 13.828125 14.47265625 C17.15428504 18.05189369 20.52373969 21.56484412 24 25 C24.680625 25.69222656 25.36125 26.38445312 26.0625 27.09765625 C29.55361216 30.63803814 33.01176616 34.00882462 37 37 C35.36990863 41.12597922 32.3853215 43.88768097 29.29269409 46.94781494 C28.40808351 47.8349888 28.40808351 47.8349888 27.505602 48.74008536 C25.52652468 50.72245925 23.54037943 52.69759616 21.55419922 54.67285156 C20.13477352 56.09171318 18.71578795 57.51101521 17.29721069 58.9307251 C13.44241397 62.78609647 9.58147465 66.63526323 5.71942282 70.48336506 C1.68528632 74.50501294 -2.34320044 78.53231193 -6.37228394 82.559021 C-14.00390038 90.18441718 -21.64060152 97.80470008 -29.27913177 105.42316985 C-37.97460659 114.09630268 -46.66441417 122.7751041 -55.35374475 131.45439196 C-73.22952042 149.30925325 -91.11241951 167.15696573 -109 185 C-112.41000996 182.75451145 -115.61586557 180.63430275 -118.51098633 177.74780273 C-119.12794876 177.13714462 -119.74491119 176.52648651 -120.38056946 175.89732361 C-121.02455185 175.24929276 -121.66853424 174.6012619 -122.33203125 173.93359375 C-123.00924728 173.25829117 -123.68646332 172.58298859 -124.38420105 171.88722229 C-125.80603723 170.46674089 -127.22537579 169.04375554 -128.64233398 167.6184082 C-130.81597933 165.43400345 -133.00015299 163.26053454 -135.18554688 161.08789062 C-136.5683505 159.70376626 -137.95053406 158.31902208 -139.33203125 156.93359375 C-139.9861348 156.28353867 -140.64023834 155.63348358 -141.31416321 154.96372986 C-141.91536484 154.35622391 -142.51656647 153.74871796 -143.13598633 153.12280273 C-143.66638016 152.59081772 -144.19677399 152.0588327 -144.74324036 151.51072693 C-146 150 -146 150 -147 147 C-98.49 98.49 -49.98 49.98 0 0 Z " fill="#0048ED" transform="translate(738,1035)"/>
<path d="M0 0 C3.1162462 1.49258776 5.3521388 3.06008272 7.86328125 5.44921875 C8.58580078 6.13306641 9.30832031 6.81691406 10.05273438 7.52148438 C11.17131836 8.59366211 11.17131836 8.59366211 12.3125 9.6875 C13.04662109 10.38294922 13.78074219 11.07839844 14.53710938 11.79492188 C26.55383421 23.21454237 26.55383421 23.21454237 31.8125 29.1875 C32.65748047 30.13689453 32.65748047 30.13689453 33.51953125 31.10546875 C34.99579924 32.99462436 35.96210098 34.84797209 37 37 C33.58942868 40.43553609 30.1753981 43.86758565 26.75830078 47.29663086 C25.59949681 48.46042274 24.44159678 49.62511549 23.28466797 50.79077148 C21.60889423 52.47885644 19.92975246 54.16353138 18.25 55.84765625 C17.4916687 56.61372948 17.4916687 56.61372948 16.71801758 57.39527893 C13.94113202 60.17258404 11.09388711 62.81359084 8.11914062 65.37866211 C3.82930203 69.09543578 -0.16794695 73.05811213 -4.15625 77.09375 C-4.9028186 77.84410522 -5.64938721 78.59446045 -6.4185791 79.36755371 C-8.78152025 81.7425992 -11.1411737 84.12086817 -13.5 86.5 C-16.61160646 89.63839217 -19.72663755 92.77332745 -22.84375 95.90625 C-23.89254333 96.96749084 -23.89254333 96.96749084 -24.96252441 98.0501709 C-28.84371428 101.95037371 -32.83456536 105.63241668 -37.00036621 109.22521973 C-40.53564181 112.36296297 -43.83478243 115.73286189 -47.15625 119.09375 C-47.9028186 119.84410522 -48.64938721 120.59446045 -49.4185791 121.36755371 C-51.78152025 123.7425992 -54.1411737 126.12086817 -56.5 128.5 C-59.61160646 131.63839217 -62.72663755 134.77332745 -65.84375 137.90625 C-66.54294556 138.6137439 -67.24214111 139.32123779 -67.96252441 140.0501709 C-71.86573815 143.97250546 -75.87990197 147.67720569 -80.0697937 151.29019165 C-83.19773531 154.06097355 -86.10267438 157.03765794 -89.01953125 160.02734375 C-90.30115174 161.32644871 -91.58306081 162.62526902 -92.86523438 163.92382812 C-94.85442963 165.9441857 -96.84115347 167.96681457 -98.82299805 169.99438477 C-100.75686771 171.97037223 -102.69988949 173.93696478 -104.64453125 175.90234375 C-105.23829056 176.51472397 -105.83204987 177.12710419 -106.44380188 177.75804138 C-107.90653362 179.2298844 -109.44768708 180.6229631 -111 182 C-114 182 -114 182 -115.6484375 180.4609375 C-116.21820312 179.77257812 -116.78796875 179.08421875 -117.375 178.375 C-117.99246094 177.64152344 -118.60992188 176.90804687 -119.24609375 176.15234375 C-120.65489469 174.42350339 -122.04867785 172.6824304 -123.4375 170.9375 C-126.6723213 167.22929022 -130.2484929 164.17346286 -134 161 C-135.21036016 159.96308496 -136.41993157 158.92524884 -137.62890625 157.88671875 C-141.08240561 154.92033537 -144.5403301 151.95918395 -148 149 C-144.14332624 144.38955967 -140.14867567 140.0052231 -135.88760376 135.76734924 C-135.30261278 135.18150383 -134.71762179 134.59565843 -134.11490381 133.99206012 C-132.1735284 132.04905063 -130.2286248 130.10961348 -128.28369141 128.17016602 C-126.88359449 126.77035144 -125.48371827 125.3703161 -124.08404541 123.97007751 C-120.29750081 120.18324679 -116.50788767 116.39950053 -112.71770525 112.61631131 C-108.75209715 108.6569675 -104.78933325 104.69477908 -100.82626343 100.7328949 C-93.32736574 93.23710146 -85.82592325 85.74386014 -78.32355726 78.25153822 C-69.77988532 69.71905555 -61.23906313 61.18372277 -52.69847608 52.64815247 C-35.13548069 35.09560096 -17.56891954 17.54662169 0 0 Z " fill="#0047ED" transform="translate(1185,588)"/>
<path d="M0 0 C6.95992471 5.75114538 13.19819005 12.1418327 19.52929688 18.56835938 C20.37427734 19.42107422 21.21925781 20.27378906 22.08984375 21.15234375 C22.84128662 21.91538818 23.59272949 22.67843262 24.36694336 23.46459961 C26.46610504 25.48590643 28.5921764 27.39602288 30.79711914 29.29711914 C35.11237994 33.04404251 39.14054679 37.03038678 43.15625 41.09375 C43.9028186 41.84410522 44.64938721 42.59446045 45.4185791 43.36755371 C48.57701112 46.54216504 51.72939279 49.72275916 54.88232422 52.90283203 C57.20069745 55.23940361 59.5221552 57.57287999 61.84375 59.90625 C62.54294556 60.6137439 63.24214111 61.32123779 63.96252441 62.0501709 C67.21670147 65.32028932 70.50579698 68.48641782 74 71.5 C78.25569005 75.17032816 82.20750043 79.09813505 86.15625 83.09375 C86.9028186 83.84410522 87.64938721 84.59446045 88.4185791 85.36755371 C91.57701112 88.54216504 94.72939279 91.72275916 97.88232422 94.90283203 C100.20069745 97.23940361 102.5221552 99.57287999 104.84375 101.90625 C105.89254333 102.96749084 105.89254333 102.96749084 106.96252441 104.0501709 C110.87717869 107.98400205 114.90098963 111.70674557 119.10339355 115.33047485 C122.01308238 117.8917857 124.74205223 120.61771316 127.46875 123.37109375 C128.03452759 123.93828629 128.60030518 124.50547882 129.18322754 125.08985901 C130.95788577 126.87003423 132.72900099 128.65368519 134.5 130.4375 C135.71591114 131.6584369 136.93205516 132.87914192 138.1484375 134.09960938 C141.10164966 137.06374013 144.05169398 140.03098958 147 143 C146.40251953 143.6959729 146.40251953 143.6959729 145.79296875 144.40600586 C142.56868173 148.16071759 142.56868173 148.16071759 139.375 151.94140625 C135.4659693 156.5500646 131.26129527 160.84520174 127 165.125 C126.41863281 165.71095947 125.83726562 166.29691895 125.23828125 166.90063477 C121.31700506 170.80814243 117.24042214 174.44107428 113 178 C108.90716493 176.37580849 106.16614748 173.43937944 103.12811279 170.36862183 C102.54483066 169.78704854 101.96154852 169.20547526 101.36059117 168.60627854 C99.40585608 166.65483968 97.45835858 164.69633472 95.51074219 162.73779297 C94.11158476 161.33807145 92.7119869 159.93879007 91.3119812 158.53991699 C87.51032696 154.73883737 83.71487752 150.93161583 79.92049313 147.123281 C75.95489993 143.14519873 71.98365518 139.17276663 68.01300049 135.19973755 C60.49385204 127.67436897 52.97981706 120.14391594 45.46759534 112.61163342 C36.91537944 104.0370751 28.35749456 95.46818438 19.79912329 86.8997705 C2.19308997 69.27282312 -15.40579431 51.63875249 -33 34 C-32.21085205 33.21157715 -31.4217041 32.4231543 -30.60864258 31.61083984 C-29.1540418 30.15501385 -27.70229175 28.69627069 -26.26171875 27.2265625 C-23.32068318 24.23444194 -20.33033302 21.39578336 -17.125 18.6875 C-10.69711304 13.14751183 -5.249294 6.64437664 0 0 Z " fill="#0047ED" transform="translate(1075,1040)"/>
<path d="M0 0 C0 24.42 0 48.84 0 74 C-24.42 74 -48.84 74 -74 74 C-67.24974255 66.12469964 -67.24974255 66.12469964 -64.74162292 63.61463928 C-63.8857962 62.75458282 -63.8857962 62.75458282 -63.01268005 61.87715149 C-62.40932327 61.27581894 -61.80596649 60.67448639 -61.18432617 60.05493164 C-60.53156708 59.40042023 -59.87880798 58.74590881 -59.20626831 58.07156372 C-57.07099213 55.93192365 -54.93212409 53.79591751 -52.79296875 51.66015625 C-51.30163707 50.16815045 -49.81045382 48.67599627 -48.31941223 47.18370056 C-45.20683235 44.06965154 -42.09246346 40.95740595 -38.97680664 37.84643555 C-34.97387462 33.84923018 -30.97548848 29.84751226 -26.97840405 25.84446049 C-23.90657029 22.76902527 -20.8323738 19.69596078 -17.75744057 16.6236248 C-16.28103443 15.14788755 -14.80537573 13.67140214 -13.33046532 12.19417 C-11.27894559 10.14012737 -9.22427688 8.08928912 -7.16870117 6.03930664 C-6.55522324 5.42380447 -5.9417453 4.80830231 -5.30967712 4.17414856 C-1.1142683 0 -1.1142683 0 0 0 Z " fill="#01FF00" transform="translate(288,1486)"/>
<path d="M0 0 C0.99 0.495 0.99 0.495 2 1 C-7.4302203 11.45328331 -17.31422535 21.40473673 -27.3125 31.3125 C-30.31159218 34.28476038 -33.30717324 37.26049852 -36.30078125 40.23828125 C-37.30568352 41.23073601 -37.30568352 41.23073601 -38.33088684 42.24324036 C-41.49954367 45.39557967 -44.5557033 48.59004035 -47.4753418 51.9753418 C-51.15502959 56.23823735 -55.08989755 60.19935955 -59.09375 64.15625 C-59.84410522 64.9028186 -60.59446045 65.64938721 -61.36755371 66.4185791 C-64.54216504 69.57701112 -67.72275916 72.72939279 -70.90283203 75.88232422 C-73.23940361 78.20069745 -75.57287999 80.5221552 -77.90625 82.84375 C-78.6137439 83.54294556 -79.32123779 84.24214111 -80.0501709 84.96252441 C-83.32028932 88.21670147 -86.48641782 91.50579698 -89.5 95 C-93.17032816 99.25569005 -97.09813505 103.20750043 -101.09375 107.15625 C-101.84410522 107.9028186 -102.59446045 108.64938721 -103.36755371 109.4185791 C-106.54216504 112.57701112 -109.72275916 115.72939279 -112.90283203 118.88232422 C-115.23940361 121.20069745 -117.57287999 123.5221552 -119.90625 125.84375 C-120.6137439 126.54294556 -121.32123779 127.24214111 -122.0501709 127.96252441 C-125.32028932 131.21670147 -128.48641782 134.50579698 -131.5 138 C-135.17032816 142.25569005 -139.09813505 146.20750043 -143.09375 150.15625 C-143.84410522 150.9028186 -144.59446045 151.64938721 -145.36755371 152.4185791 C-148.54216504 155.57701112 -151.72275916 158.72939279 -154.90283203 161.88232422 C-157.23940361 164.20069745 -159.57287999 166.5221552 -161.90625 168.84375 C-162.6137439 169.54294556 -163.32123779 170.24214111 -164.0501709 170.96252441 C-168.01596566 174.90898648 -171.78650488 178.96033758 -175.44006348 183.1973877 C-178.97167009 187.27839833 -182.73895344 191.13200424 -186.5 195 C-187.31597656 195.87011719 -188.13195312 196.74023438 -188.97265625 197.63671875 C-194.92262004 203.72038959 -194.92262004 203.72038959 -198.15234375 204.55859375 C-200.09375 204.5625 -200.09375 204.5625 -203 204 C-198.51019128 198.62127385 -193.7618977 193.62234593 -188.79959106 188.67933655 C-187.58521152 187.46367536 -187.58521152 187.46367536 -186.34629905 186.22345537 C-183.64485514 183.52037012 -180.93986331 180.82086414 -178.23486328 178.12133789 C-176.29262248 176.17993694 -174.35113807 174.23778018 -172.40962219 172.2956543 C-168.23538861 168.12089766 -164.05933542 163.94796848 -159.88202286 159.7762928 C-153.84241365 153.74482813 -147.80558424 147.71058743 -141.7694187 141.67567664 C-131.97486316 131.88330697 -122.17807889 122.09317021 -112.37988281 112.30444336 C-102.86471043 102.7984571 -93.3505942 93.29141583 -83.83789062 83.78295898 C-83.25102884 83.19635992 -82.66416705 82.60976086 -82.05952157 82.00538606 C-79.11526612 79.06243569 -76.17103136 76.11946463 -73.22680688 73.17648327 C-48.82107793 48.7811125 -24.41172771 24.38936796 0 0 Z " fill="#FFC000" transform="translate(492,1356)"/>
<path d="M0 0 C3.25560827 1.42852364 5.41854803 3.17024362 7.9230957 5.68017578 C8.68100906 6.43501251 9.43892242 7.18984924 10.21980286 7.96755981 C11.03027573 8.7852182 11.8407486 9.60287659 12.67578125 10.4453125 C13.5191655 11.28915497 14.36254974 12.13299744 15.23149109 13.00241089 C17.01664322 14.79058438 18.79936398 16.58118794 20.57983398 18.37402344 C23.28648825 21.09881396 26.00093764 23.81563746 28.71679688 26.53125 C30.45359525 28.27296871 32.18993794 30.01514195 33.92578125 31.7578125 C35.13238152 32.966082 35.13238152 32.966082 36.36335754 34.19876099 C37.13072739 34.97251068 37.89809723 35.74626038 38.6887207 36.54345703 C39.35394241 37.21249054 40.01916412 37.88152405 40.70454407 38.5708313 C42.49898285 40.46979807 44.18643904 42.39093389 45.87640381 44.37937927 C51.67304305 51.03552101 58.03901793 57.16098295 64.28881836 63.38647461 C65.73833139 64.83406621 67.18761525 66.28188733 68.63668823 67.72991943 C71.7443291 70.83441133 74.85351357 73.93734586 77.96391106 77.03907585 C82.87774816 81.9393564 87.78773795 86.84347974 92.69715881 91.7481842 C103.10764356 102.14759122 113.52236686 112.54274873 123.9375 122.9375 C135.20605298 134.18403816 146.47387347 145.43130452 157.73684794 156.68342978 C162.62272541 161.56431118 167.51103381 166.44274111 172.40118682 171.31933868 C175.43135702 174.34208251 178.4594836 177.36686708 181.48704147 180.39222717 C182.89715452 181.8004587 184.30813631 183.2078209 185.7200222 184.61427498 C187.63777203 186.52487476 189.55247714 188.43847319 191.46641541 190.35289001 C192.03360997 190.91648961 192.60080453 191.48008922 193.1851868 192.06076759 C197 195.88590667 197 195.88590667 197 197 C194.82958984 197.296875 194.82958984 197.296875 192 197 C189.43212891 195.015625 189.43212891 195.015625 186.7265625 192.25 C186.23972992 191.75846436 185.75289734 191.26692871 185.25131226 190.76049805 C183.69713783 189.18501566 182.16138926 187.59281034 180.625 186 C179.60006545 184.9585447 178.57403349 183.9181682 177.546875 182.87890625 C173.46676623 178.72678453 169.46150429 174.55530487 165.65966797 170.14648438 C161.92585176 165.85235134 157.95218401 161.84222843 153.90625 157.84375 C153.15589478 157.0971814 152.40553955 156.35061279 151.63244629 155.5814209 C149.2574008 153.21847975 146.87913183 150.8588263 144.5 148.5 C141.36160783 145.38839354 138.22667255 142.27336245 135.09375 139.15625 C134.03250916 138.10745667 134.03250916 138.10745667 132.9498291 137.03747559 C129.04962629 133.15628572 125.36758332 129.16543464 121.77478027 124.99963379 C118.63703703 121.46435819 115.26713811 118.16521757 111.90625 114.84375 C111.15589478 114.0971814 110.40553955 113.35061279 109.63244629 112.5814209 C107.2574008 110.21847975 104.87913183 107.8588263 102.5 105.5 C99.36160783 102.38839354 96.22667255 99.27336245 93.09375 96.15625 C92.03250916 95.10745667 92.03250916 95.10745667 90.9498291 94.03747559 C87.68422219 90.78778805 84.52226814 87.50376317 81.51367188 84.01367188 C77.77202888 79.67537778 73.75995317 75.65111906 69.6875 71.625 C68.91494873 70.85623535 68.14239746 70.0874707 67.34643555 69.29541016 C64.90005818 66.86114235 62.4504586 64.43015894 60 62 C56.76786312 58.79463822 53.53917465 55.58585927 50.3125 52.375 C49.58313232 51.65393066 48.85376465 50.93286133 48.10229492 50.18994141 C44.78207139 46.88543899 41.56078556 43.55050288 38.50170898 40.00170898 C34.75649109 35.65703282 30.73768573 31.62879931 26.66015625 27.59765625 C25.89319931 26.83448593 25.12624237 26.07131561 24.33604431 25.28501892 C21.91396374 22.87504822 19.48864179 20.46838174 17.0625 18.0625 C13.84222663 14.86871277 10.62520999 11.67169679 7.41015625 8.47265625 C6.66653336 7.7373317 5.92291046 7.00200714 5.15675354 6.24440002 C4.47862106 5.56957077 3.80048859 4.89474152 3.10180664 4.19946289 C2.50114883 3.6040419 1.90049103 3.00862091 1.28163147 2.39515686 C0 1 0 1 0 0 Z " fill="#FFBD00" transform="translate(1331,1363)"/>
</svg>
